<?xml version="1.0" encoding="UTF-8"?>
<svg xmlns="http://www.w3.org/2000/svg" version="1.1" viewBox="0 0 159 146">
  <defs>
    <style>
      .cls-1 {
        fill: #ffb438;
      }

      .cls-2 {
        fill: #4d58ca;
      }

      .cls-3 {
        isolation: isolate;
      }

      .cls-4 {
        mix-blend-mode: multiply;
      }

      .cls-4, .cls-5 {
        fill: #2ebec7;
      }

      .cls-6 {
        fill: #fff;
      }

      .cls-7 {
        fill: #ec5624;
      }
    </style>
  </defs>
  <!-- Generator: Adobe Illustrator 28.6.0, SVG Export Plug-In . SVG Version: 1.2.0 Build 709)  -->
  <g class="cls-3">
    <g id="Layer_1">
      <g id="Background">
        <circle id="Background_2" class="cls-2" cx="79.5" cy="73" r="66.5"/>
      </g>
      <g>
        <rect class="cls-7" x="53.75" y="51.27" width="58.05" height="57.82"/>
        <rect class="cls-4" x="63.84" y="41.26" width="58.05" height="57.82"/>
        <rect class="cls-5" x="76.24" y="31.48" width="58.05" height="57.82"/>
        <path class="cls-1" d="M134.64,99.76c-2.75,0-4.97,2.17-5.15,4.86-.03,0-.05-.02-.07-.02v-4.84c0-2.86-2.34-5.2-5.22-5.2s-5.22,2.34-5.22,5.2v-5.2c0-2.86-2.34-5.2-5.22-5.2s-5.22,2.34-5.22,5.2v-20.8c0-2.86-2.34-5.2-5.22-5.2s-5.22,2.34-5.22,5.2v34.95c0,.63-.58,1.2-1.19,1.38-.61.18-1.34-.05-1.7-.58-3.84-4.99-3.6-9.92-9.14-9.92-1.28,0-2.48.67-3.13,1.78-.64,1.1-.66,2.47-.04,3.58l16.35,35.06c.46.82,1.34,1.33,2.28,1.33h30.49c4.32,0,7.83-3.49,7.83-7.8v-28.6c0-2.86-2.34-5.2-5.22-5.2Z"/>
        <g>
          <path class="cls-6" d="M103.09,62.68c-4.7,0-8.53,3.81-8.53,8.49s3.82,8.49,8.53,8.49,8.53-3.81,8.53-8.49-3.83-8.49-8.53-8.49ZM103.09,78.98c-4.32,0-7.84-3.5-7.84-7.81s3.52-7.81,7.84-7.81,7.84,3.5,7.84,7.81-3.52,7.81-7.84,7.81Z"/>
          <path class="cls-6" d="M103.09,59.7c-6.35,0-11.52,5.15-11.52,11.47s5.17,11.47,11.52,11.47,11.52-5.15,11.52-11.47-5.17-11.47-11.52-11.47ZM103.09,82.1c-6.05,0-10.97-4.9-10.97-10.93s4.92-10.93,10.97-10.93,10.97,4.9,10.97,10.93-4.92,10.93-10.97,10.93Z"/>
          <path class="cls-6" d="M103.09,65.71c-3.18,0-5.76,2.58-5.76,5.74s2.59,5.74,5.76,5.74,5.76-2.58,5.76-5.74-2.59-5.74-5.76-5.74ZM103.09,76.5c-2.8,0-5.07-2.27-5.07-5.05s2.28-5.05,5.07-5.05,5.07,2.27,5.07,5.05-2.28,5.05-5.07,5.05Z"/>
        </g>
        <g>
          <path class="cls-1" d="M41.04,83.42c-.44.73-1.26.95-1.97.52-.72-.43-.89-1.23-.44-1.97.43-.71,1.24-.95,1.97-.51.7.42.89,1.25.45,1.96Z"/>
          <path class="cls-5" d="M35.22,79.46c-.56.64-1.4.72-2.04.17s-.66-1.37-.09-2.02c.55-.63,1.38-.72,2.02-.16.62.54.65,1.38.1,2.01Z"/>
          <path class="cls-7" d="M30.17,74.56c-.66.53-1.51.47-2.03-.18-.53-.65-.42-1.46.26-2.01.65-.52,1.49-.47,2.02.19.52.64.4,1.47-.25,2Z"/>
          <path class="cls-1" d="M26.06,68.86c-.75.41-1.57.2-1.97-.53-.4-.73-.15-1.51.61-1.93.73-.4,1.55-.2,1.96.54.4.72.14,1.52-.59,1.92Z"/>
          <path class="cls-5" d="M23.01,62.54c-.81.27-1.58-.08-1.85-.87-.27-.79.12-1.52.94-1.8.79-.27,1.56.07,1.83.87.26.77-.13,1.52-.92,1.79Z"/>
          <path class="cls-7" d="M21.12,55.77c-.84.13-1.54-.35-1.67-1.18-.13-.82.38-1.47,1.24-1.61.83-.13,1.52.34,1.65,1.18.13.81-.39,1.48-1.22,1.6Z"/>
          <path class="cls-1" d="M20.43,48.78c-.85-.02-1.46-.61-1.44-1.44.02-.83.63-1.39,1.5-1.37.84.02,1.44.59,1.42,1.44-.02.82-.64,1.39-1.48,1.37Z"/>
          <path class="cls-5" d="M20.97,41.79c-.84-.17-1.33-.86-1.16-1.67.16-.82.86-1.26,1.71-1.09.82.16,1.31.84,1.15,1.67-.16.8-.88,1.25-1.7,1.09Z"/>
          <path class="cls-7" d="M22.73,34.99c-.79-.31-1.16-1.07-.85-1.85.3-.78,1.07-1.09,1.88-.77.78.3,1.15,1.05.84,1.84-.3.76-1.08,1.08-1.86.78Z"/>
          <path class="cls-1" d="M25.66,28.6c-.73-.44-.95-1.26-.52-1.97.43-.71,1.24-.88,1.98-.44.71.43.95,1.24.5,1.96-.43.7-1.26.88-1.97.44Z"/>
          <path class="cls-5" d="M29.65,22.82c-.64-.56-.72-1.4-.16-2.03.55-.63,1.38-.66,2.03-.09.63.55.72,1.38.15,2.02-.54.61-1.39.65-2.02.1Z"/>
          <path class="cls-7" d="M34.59,17.81c-.53-.66-.46-1.5.19-2.03.65-.52,1.47-.41,2.01.27.52.65.46,1.48-.2,2.01-.64.51-1.48.4-2-.25Z"/>
          <path class="cls-1" d="M40.33,13.74c-.41-.75-.19-1.56.54-1.96.73-.4,1.52-.15,1.94.61.4.73.2,1.54-.55,1.95-.72.39-1.53.13-1.93-.6Z"/>
          <path class="cls-5" d="M46.69,10.73c-.27-.8.09-1.57.88-1.84.79-.27,1.52.12,1.8.94.27.79-.08,1.55-.88,1.82-.78.26-1.53-.14-1.79-.93Z"/>
          <path class="cls-7" d="M53.49,8.87c-.13-.84.36-1.53,1.19-1.66.83-.12,1.48.38,1.61,1.24.12.82-.35,1.51-1.19,1.64-.81.12-1.48-.4-1.61-1.22Z"/>
          <path class="cls-1" d="M60.51,8.21c.02-.85.62-1.45,1.46-1.43.84.02,1.39.63,1.37,1.49-.02.83-.6,1.43-1.45,1.41-.82-.02-1.39-.65-1.37-1.48Z"/>
          <path class="cls-5" d="M67.53,8.78c.17-.83.86-1.32,1.68-1.15.82.17,1.26.86,1.08,1.71-.17.82-.85,1.31-1.68,1.14-.8-.16-1.25-.88-1.09-1.7Z"/>
          <path class="cls-7" d="M74.35,10.56c.31-.79,1.08-1.15,1.86-.84.78.31,1.09,1.07.77,1.87-.31.77-1.06,1.14-1.85.83-.76-.3-1.08-1.08-.77-1.86Z"/>
          <path class="cls-1" d="M80.75,13.5c.45-.72,1.27-.94,1.98-.51.71.44.88,1.24.43,1.98-.44.71-1.24.94-1.97.49-.7-.43-.88-1.25-.44-1.96Z"/>
          <path class="cls-5" d="M86.54,17.5c.57-.64,1.41-.71,2.04-.16.63.55.65,1.38.08,2.02-.55.62-1.39.71-2.03.14-.61-.54-.64-1.39-.09-2.01Z"/>
        </g>
        <polygon class="cls-7" points="90.85 22.14 93.36 20.37 93.65 23.42 93.94 26.47 91.14 25.2 88.34 23.92 90.85 22.14"/>
        <polygon class="cls-5" points="44.3 84.88 45.11 81.92 47.28 84.1 49.45 86.27 46.47 87.06 43.49 87.84 44.3 84.88"/>
      </g>
    </g>
  </g>
</svg>